<?xml version="1.0" encoding="UTF-8" standalone="no"?>
<svg
   data-name="Layer 1"
   id="Layer_1"
   viewBox="0 0 24 24"
   version="1.1"
   sodipodi:docname="pd-neimog.svg"
   inkscape:version="1.3 (0e150ed6c4, 2023-07-21)"
   xmlns:inkscape="http://www.inkscape.org/namespaces/inkscape"
   xmlns:sodipodi="http://sodipodi.sourceforge.net/DTD/sodipodi-0.dtd"
   xmlns="http://www.w3.org/2000/svg"
   xmlns:svg="http://www.w3.org/2000/svg">
  <sodipodi:namedview
     id="namedview310"
     pagecolor="#ffffff"
     bordercolor="#000000"
     borderopacity="0.25"
     inkscape:showpageshadow="2"
     inkscape:pageopacity="0.0"
     inkscape:pagecheckerboard="0"
     inkscape:deskcolor="#d1d1d1"
     showgrid="false"
     inkscape:zoom="26.687834"
     inkscape:cx="15.756243"
     inkscape:cy="9.1240076"
     inkscape:window-width="1920"
     inkscape:window-height="1011"
     inkscape:window-x="0"
     inkscape:window-y="0"
     inkscape:window-maximized="1"
     inkscape:current-layer="Layer_1" />
  <defs
     id="defs293">
    <style
       id="style291">.cls-1{fill:#009688;}.cls-2{fill:#a7ffeb;}.cls-3{fill:#e0f2f1;}</style>
  </defs>
  <title
     id="title295" />
  <path
     class="cls-1"
     d="m 16.5,21.963408 h -9 a 3,3 0 0 1 -3,-3 v -14 a 3,3 0 0 1 3,-3 h 6.59 a 1,1 0 0 1 0.7,0.29 l 4.42,4.42 a 1,1 0 0 1 0.29,0.7 v 11.59 a 3,3 0 0 1 -3,3 z"
     id="path297"
     style="fill:#e6e6e6"
     inkscape:export-filename="pd2.svg"
     inkscape:export-xdpi="153.60001"
     inkscape:export-ydpi="153.60001" />
  <path
     class="cls-2"
     d="m 18.8,7.703408 h -3.6 a 1.5,1.5 0 0 1 -1.5,-1.5 v -3.6 a 0.55,0.55 0 0 1 0.94,-0.39 l 4.55,4.55 a 0.55,0.55 0 0 1 -0.39,0.94 z"
     id="path299"
     style="fill:#ececec" />
  <text
     x="10.66484"
     y="12.440568"
     id="7fb48d028a00LABEL label text"
     style="font-size:2.3224px;font-family:Monaco;fill:#000000;stroke-width:0"
     transform="scale(0.99918408,1.0008166)" />
  <rect
     x="6.8948812"
     y="9.0438986"
     width="3.4807634"
     height="3.4864502"
     id="7fb48d028a00BASE"
     style="fill:#00fc04;stroke:#000000;stroke-width:0.1;stroke-dasharray:none" />
  <ellipse
     cx="8.6352634"
     cy="10.787125"
     id="7fb48d028a00BUT"
     style="fill:#00fc04;stroke:#000000;stroke-width:0.1;stroke-dasharray:none"
     rx="1.5083308"
     ry="1.5107951" />
  <polyline
     transform="matrix(0.23205089,0,0,0.23243002,-17.238412,-9.3180722)"
     points="104.0 99.0 148.0 99.0 148.0 124.0 104.0 124.0 104.0 99.0"
     id=".x7fb48cd26890.t7fb48cc1a7d0R obj"
     style="fill:#ffffff;fill-opacity:1;stroke:#000000;stroke-width:1.72235;stroke-linejoin:miter;stroke-dasharray:none" />
  <rect
     transform="scale(1,-1)"
     x="6.8948812"
     y="-14.157359"
     width="1.6243562"
     height="0.46486008"
     id=".x7fb48cd26890.t7fb48cc1a7d0i0 inlet"
     style="fill:#000000;stroke:#000000;stroke-width:0.4;stroke-dasharray:none" />
  <rect
     x="15.480764"
     y="13.692499"
     width="1.6243563"
     height="0.46486005"
     id=".x7fb48cd26890.t7fb48cc1a7d0i1 inlet"
     style="fill:#000000;stroke:#000000;stroke-width:0.4;stroke-dasharray:none" />
  <text
     x="7.3649926"
     y="18.315929"
     id=".x7fb48cd26890.t7fb48cc1a7d0 obj text"
     style="font-style:normal;font-variant:normal;font-weight:bold;font-stretch:normal;font-size:4.64481px;line-height:125%;font-family:'DejaVu Sans Mono';-inkscape-font-specification:'DejaVu Sans Mono, Bold';text-align:start;writing-mode:lr-tb;text-anchor:start;fill:#000000;fill-opacity:1;stroke-width:0"
     transform="scale(0.99918407,1.0008166)"><tspan
       id="tspan4141"
       style="font-style:normal;font-variant:normal;font-weight:bold;font-stretch:normal;font-size:4.64481px;line-height:125%;font-family:'DejaVu Sans Mono';-inkscape-font-specification:'DejaVu Sans Mono, Bold';text-align:start;letter-spacing:0.23224px;writing-mode:lr-tb;text-anchor:start;opacity:1;fill:#000000;fill-opacity:1;stroke-width:0">Pd</tspan></text>
  <polyline
     transform="matrix(0.23205089,0,0,0.23243002,-17.238412,-9.3180722)"
     points="107.0 94.0 107.0 99.0"
     id="l7fb48cc19700 cord"
     style="fill:none;stroke:#000000;stroke-width:4.30588;stroke-linejoin:round" />
  <rect
     style="fill:#000000;stroke:#000000;stroke-width:0.399;stroke-dasharray:none"
     id="rect4160"
     height="0.46511263"
     width="1.6199479"
     y="-19.483204"
     x="6.8947554"
     transform="scale(1,-1)" />
</svg>
